<svg width="512" height="512" viewBox="0 0 512 512" fill="none" xmlns="http://www.w3.org/2000/svg">
  <rect width="512" height="512" rx="132" fill="#0B1320"/>
  <rect x="38" y="38" width="436" height="436" rx="116" fill="#101B2D" stroke="#F3E7D3" stroke-opacity="0.12" stroke-width="4"/>
  <path d="M132 330C132 260.412 188.412 204 258 204H332V256H258C217.131 256 184 289.131 184 330V332H132V330Z" fill="#F05A28"/>
  <path d="M184 182C184 141.131 217.131 108 258 108H330V160H258C245.85 160 236 169.85 236 182V186H184V182Z" fill="#F0B429"/>
  <rect x="288" y="108" width="52" height="224" rx="26" fill="#F3E7D3"/>
  <circle cx="184" cy="332" r="52" fill="#0E7490"/>
  <circle cx="184" cy="332" r="20" fill="#0B1320"/>
  <path d="M236 330C236 278.086 278.086 236 330 236H380V288H330C306.804 288 288 306.804 288 330V332H236V330Z" fill="#F3E7D3"/>
</svg>
